
<svg version="1.1" id="Layer_1" xmlns="http://www.w3.org/2000/svg" xmlns:xlink="http://www.w3.org/1999/xlink" 
	 viewBox="0 0 512 512" xml:space="preserve">
<path style="fill:#E17858;" d="M441.406,28.294c-37.725-37.725-98.889-37.725-136.615,0L256,77.086l-48.791-48.791
	c-37.726-37.726-98.89-37.726-136.615-0.001s-37.725,98.89,0,136.615L256,350.316L441.406,164.91
	C479.132,127.184,479.132,66.02,441.406,28.294z"/>
<path style="fill:#FF4F19;" d="M441.406,28.294c-37.725-37.725-98.889-37.725-136.615,0L256,77.086v273.23L441.406,164.91
	C479.132,127.184,479.132,66.02,441.406,28.294z"/>
<rect x="114.526" y="384" style="fill:#B4D8F1;" width="40.421" height="107.789"/>
<rect x="67.368" y="471.579" style="fill:#98C8ED;" width="134.737" height="40.421"/>
<path style="fill:#B4D8F1;" d="M53.894,215.579v94.316c0,44.648,36.194,80.842,80.842,80.842s80.842-36.194,80.842-80.842v-94.316
	H53.894z"/>
<g>
	<path style="fill:#98C8ED;" d="M134.737,215.579v175.158c44.648,0,80.842-36.194,80.842-80.842v-94.316H134.737z"/>
	<rect x="357.052" y="384" style="fill:#98C8ED;" width="40.421" height="107.789"/>
</g>
<rect x="309.894" y="471.579" style="fill:#7AB9E8;" width="134.737" height="40.421"/>
<path style="fill:#98C8ED;" d="M296.421,215.579v94.316c0,44.648,36.194,80.842,80.842,80.842s80.842-36.194,80.842-80.842v-94.316
	H296.421z"/>
<path style="fill:#7AB9E8;" d="M377.263,215.579v175.158c44.648,0,80.842-36.194,80.842-80.842v-94.316H377.263z"/>
</svg>